<svg width="1600" height="1327" viewBox="0 0 1600 1327" fill="none" xmlns="http://www.w3.org/2000/svg">
<path d="M771.669 412.543L715.801 460.438L721.786 467.421L777.653 419.526L771.669 412.543Z" fill="white" fill-opacity="0.3" style="fill:white;fill-opacity:0.3;"/>
<path d="M730.281 524.278L723.299 530.264L771.183 586.145L778.165 580.159L730.281 524.278Z" fill="white" fill-opacity="0.3" style="fill:white;fill-opacity:0.3;"/>
<path d="M632.313 518.213L623.283 519.951L637.184 592.223L646.214 590.485L632.313 518.213Z" fill="white" fill-opacity="0.3" style="fill:white;fill-opacity:0.3;"/>
<path d="M645.849 413.319L602.351 472.679L609.768 478.116L653.266 418.757L645.849 413.319Z" fill="white" fill-opacity="0.3" style="fill:white;fill-opacity:0.3;"/>
<path d="M843.316 408.968L836.2 414.794L882.805 471.747L889.921 465.921L843.316 408.968Z" fill="white" fill-opacity="0.3" style="fill:white;fill-opacity:0.3;"/>
<path d="M888.607 528.294L831.668 574.909L837.493 582.027L894.432 535.412L888.607 528.294Z" fill="white" fill-opacity="0.3" style="fill:white;fill-opacity:0.3;"/>
<path d="M993.34 530.04L963.014 597.095L971.392 600.886L1001.72 533.831L993.34 530.04Z" fill="white" fill-opacity="0.3" style="fill:white;fill-opacity:0.3;"/>
<path d="M974.457 404.164L965.781 407.213L990.173 476.649L998.849 473.6L974.457 404.164Z" fill="white" fill-opacity="0.3" style="fill:white;fill-opacity:0.3;"/>
<path d="M846.222 303.931L841.32 311.713L903.576 350.942L908.478 343.16L846.222 303.931Z" fill="white" fill-opacity="0.3" style="fill:white;fill-opacity:0.3;"/>
<path d="M783.779 310.5L714.584 335.526L717.711 344.176L786.906 319.149L783.779 310.5Z" fill="white" fill-opacity="0.3" style="fill:white;fill-opacity:0.3;"/>
<path d="M657.681 298.221L605.389 349.998L611.858 356.534L664.15 304.757L657.681 298.221Z" fill="white" fill-opacity="0.3" style="fill:white;fill-opacity:0.3;"/>
<path d="M970.62 296.726L963.722 302.808L1012.38 358.014L1019.28 351.932L970.62 296.726Z" fill="white" fill-opacity="0.3" style="fill:white;fill-opacity:0.3;"/>
<path d="M961.46 182.549L954.562 188.632L1003.22 243.838L1010.12 237.755L961.46 182.549Z" fill="white" fill-opacity="0.3" style="fill:white;fill-opacity:0.3;"/>
<path d="M705.396 205.111L704.95 214.298L778.444 217.868L778.889 208.681L705.396 205.111Z" fill="white" fill-opacity="0.3" style="fill:white;fill-opacity:0.3;"/>
<path d="M664.796 196.012L594.571 217.983L597.316 226.762L667.541 204.79L664.796 196.012Z" fill="white" fill-opacity="0.3" style="fill:white;fill-opacity:0.3;"/>
<path d="M539.638 189.43L475.496 225.492L480.002 233.509L544.144 197.447L539.638 189.43Z" fill="white" fill-opacity="0.3" style="fill:white;fill-opacity:0.3;"/>
<path d="M425.631 189.43L361.489 225.492L365.995 233.51L430.137 197.448L425.631 189.43Z" fill="white" fill-opacity="0.3" style="fill:white;fill-opacity:0.3;"/>
<path d="M306.105 191.209L241.964 227.272L246.469 235.289L310.611 199.227L306.105 191.209Z" fill="white" fill-opacity="0.3" style="fill:white;fill-opacity:0.3;"/>
<path d="M533.262 298.715L480.039 349.535L486.389 356.188L539.612 305.369L533.262 298.715Z" fill="white" fill-opacity="0.3" style="fill:white;fill-opacity:0.3;"/>
<path d="M413.764 298.718L360.541 349.537L366.891 356.19L420.113 305.371L413.764 298.718Z" fill="white" fill-opacity="0.3" style="fill:white;fill-opacity:0.3;"/>
<path d="M299.718 298.719L246.496 349.538L252.845 356.191L306.068 305.372L299.718 298.719Z" fill="white" fill-opacity="0.3" style="fill:white;fill-opacity:0.3;"/>
<path d="M175.785 299.963L119.834 347.761L125.806 354.755L181.757 306.957L175.785 299.963Z" fill="white" fill-opacity="0.3" style="fill:white;fill-opacity:0.3;"/>
<path d="M179.608 410.65L128.495 463.592L135.11 469.981L186.223 417.04L179.608 410.65Z" fill="white" fill-opacity="0.3" style="fill:white;fill-opacity:0.3;"/>
<path d="M158.16 519.483L134.74 589.253L143.457 592.181L166.877 522.411L158.16 519.483Z" fill="white" fill-opacity="0.3" style="fill:white;fill-opacity:0.3;"/>
<path d="M283.698 517.49L260.278 587.26L268.995 590.188L292.416 520.418L283.698 517.49Z" fill="white" fill-opacity="0.3" style="fill:white;fill-opacity:0.3;"/>
<path d="M409.832 411.981L371.245 474.646L379.074 479.469L417.662 416.805L409.832 411.981Z" fill="white" fill-opacity="0.3" style="fill:white;fill-opacity:0.3;"/>
<path d="M394.546 518.777L387.915 592.075L397.074 592.904L403.704 519.606L394.546 518.777Z" fill="white" fill-opacity="0.3" style="fill:white;fill-opacity:0.3;"/>
<path d="M522.357 405.457L489.136 471.126L497.341 475.279L530.562 409.61L522.357 405.457Z" fill="white" fill-opacity="0.3" style="fill:white;fill-opacity:0.3;"/>
<path d="M514.67 520.72L505.499 521.397L510.914 594.795L520.085 594.118L514.67 520.72Z" fill="white" fill-opacity="0.3" style="fill:white;fill-opacity:0.3;"/>
<path d="M898.906 657.826L826.017 667.89L827.275 677.002L900.164 666.937L898.906 657.826Z" fill="white" fill-opacity="0.3" style="fill:white;fill-opacity:0.3;"/>
<path d="M719.969 646.62L715.818 654.828L781.477 688.045L785.628 679.838L719.969 646.62Z" fill="white" fill-opacity="0.3" style="fill:white;fill-opacity:0.3;"/>
<path d="M621.629 632.747L613.505 637.055L647.969 702.08L656.094 697.772L621.629 632.747Z" fill="white" fill-opacity="0.3" style="fill:white;fill-opacity:0.3;"/>
<path d="M394.167 635.622L384.972 635.724L385.781 709.316L394.976 709.215L394.167 635.622Z" fill="white" fill-opacity="0.3" style="fill:white;fill-opacity:0.3;"/>
<path d="M506.698 636.402L498.115 639.703L524.52 708.398L533.103 705.097L506.698 636.402Z" fill="white" fill-opacity="0.3" style="fill:white;fill-opacity:0.3;"/>
<path d="M279.237 637.839L264.416 709.928L273.423 711.781L288.244 639.692L279.237 637.839Z" fill="white" fill-opacity="0.3" style="fill:white;fill-opacity:0.3;"/>
<path d="M168.934 642.413L137.42 708.918L145.729 712.858L177.244 646.353L168.934 642.413Z" fill="white" fill-opacity="0.3" style="fill:white;fill-opacity:0.3;"/>
<path d="M159.591 753.994L146.006 826.326L155.043 828.025L168.629 755.693L159.591 753.994Z" fill="white" fill-opacity="0.3" style="fill:white;fill-opacity:0.3;"/>
<path d="M279.139 751.854L277.559 825.434L286.753 825.632L288.332 752.051L279.139 751.854Z" fill="white" fill-opacity="0.3" style="fill:white;fill-opacity:0.3;"/>
<path d="M390.04 751.814L381.008 753.546L394.859 825.827L403.89 824.096L390.04 751.814Z" fill="white" fill-opacity="0.3" style="fill:white;fill-opacity:0.3;"/>
<path d="M499.029 753.442L490.659 757.25L521.126 824.242L529.496 820.434L499.029 753.442Z" fill="white" fill-opacity="0.3" style="fill:white;fill-opacity:0.3;"/>
<path d="M606.407 755.406L599.613 761.603L649.19 815.986L655.985 809.789L606.407 755.406Z" fill="white" fill-opacity="0.3" style="fill:white;fill-opacity:0.3;"/>
<path d="M715.378 770.073L711.074 778.201L776.095 812.651L780.4 804.523L715.378 770.073Z" fill="white" fill-opacity="0.3" style="fill:white;fill-opacity:0.3;"/>
<path d="M832.495 782.198L831.925 791.378L905.364 795.935L905.934 786.755L832.495 782.198Z" fill="white" fill-opacity="0.3" style="fill:white;fill-opacity:0.3;"/>
<path d="M1016.22 651.054L951.403 685.878L955.754 693.98L1020.58 659.157L1016.22 651.054Z" fill="white" fill-opacity="0.3" style="fill:white;fill-opacity:0.3;"/>
<path d="M1013.38 773.708L941.871 791.051L944.038 799.99L1015.55 782.647L1013.38 773.708Z" fill="white" fill-opacity="0.3" style="fill:white;fill-opacity:0.3;"/>
<path d="M1131.17 761.853L1065.77 795.574L1069.98 803.75L1135.38 770.029L1131.17 761.853Z" fill="white" fill-opacity="0.3" style="fill:white;fill-opacity:0.3;"/>
<path d="M1123.2 640.927L1071.32 693.114L1077.84 699.599L1129.72 647.413L1123.2 640.927Z" fill="white" fill-opacity="0.3" style="fill:white;fill-opacity:0.3;"/>
<path d="M1105.6 522.871L1073.69 589.188L1081.98 593.177L1113.89 526.86L1105.6 522.871Z" fill="white" fill-opacity="0.3" style="fill:white;fill-opacity:0.3;"/>
<path d="M1095.59 403.318L1086.42 404.007L1091.94 477.397L1101.11 476.708L1095.59 403.318Z" fill="white" fill-opacity="0.3" style="fill:white;fill-opacity:0.3;"/>
<path d="M1090.82 291.57L1082.31 295.063L1110.25 363.146L1118.76 359.653L1090.82 291.57Z" fill="white" fill-opacity="0.3" style="fill:white;fill-opacity:0.3;"/>
<path d="M1093.28 177.404L1084.77 180.897L1112.72 248.981L1121.23 245.487L1093.28 177.404Z" fill="white" fill-opacity="0.3" style="fill:white;fill-opacity:0.3;"/>
<path d="M1227.34 176.182L1218.15 176.622L1221.67 250.135L1230.85 249.696L1227.34 176.182Z" fill="white" fill-opacity="0.3" style="fill:white;fill-opacity:0.3;"/>
<path d="M1225.16 284.701L1215.96 284.754L1216.39 358.35L1225.58 358.297L1225.16 284.701Z" fill="white" fill-opacity="0.3" style="fill:white;fill-opacity:0.3;"/>
<path d="M1227.86 403.949L1204.44 473.718L1213.16 476.646L1236.58 406.876L1227.86 403.949Z" fill="white" fill-opacity="0.3" style="fill:white;fill-opacity:0.3;"/>
<path d="M1238.99 521.541L1199.92 583.907L1207.72 588.791L1246.78 526.424L1238.99 521.541Z" fill="white" fill-opacity="0.3" style="fill:white;fill-opacity:0.3;"/>
<path d="M1239.85 640.695L1184.64 689.346L1190.72 696.248L1245.93 647.596L1239.85 640.695Z" fill="white" fill-opacity="0.3" style="fill:white;fill-opacity:0.3;"/>
<path d="M1248.04 764.223L1187.77 806.448L1193.05 813.981L1253.32 771.757L1248.04 764.223Z" fill="white" fill-opacity="0.3" style="fill:white;fill-opacity:0.3;"/>
<path d="M611.611 868.839L604.942 875.172L655.6 928.548L662.269 922.216L611.611 868.839Z" fill="white" fill-opacity="0.3" style="fill:white;fill-opacity:0.3;"/>
<path d="M716.822 990.219L712.002 998.052L774.666 1036.63L779.485 1028.79L716.822 990.219Z" fill="white" fill-opacity="0.3" style="fill:white;fill-opacity:0.3;"/>
<path d="M608.43 984.867L601.241 990.601L647.116 1048.14L654.305 1042.41L608.43 984.867Z" fill="white" fill-opacity="0.3" style="fill:white;fill-opacity:0.3;"/>
<path d="M490.745 984.846L483.555 990.58L529.43 1048.12L536.62 1042.39L490.745 984.846Z" fill="white" fill-opacity="0.3" style="fill:white;fill-opacity:0.3;"/>
<path d="M388.732 978.948L379.773 981.021L396.363 1052.72L405.321 1050.65L388.732 978.948Z" fill="white" fill-opacity="0.3" style="fill:white;fill-opacity:0.3;"/>
<path d="M263.074 983.265L262.638 1056.86L271.833 1056.92L272.27 983.319L263.074 983.265Z" fill="white" fill-opacity="0.3" style="fill:white;fill-opacity:0.3;"/>
<path d="M157.289 982.899L149.649 1056.1L158.795 1057.05L166.435 983.854L157.289 982.899Z" fill="white" fill-opacity="0.3" style="fill:white;fill-opacity:0.3;"/>
<path d="M43.5101 979.656L24.2553 1050.69L33.1305 1053.1L52.3853 982.063L43.5101 979.656Z" fill="white" fill-opacity="0.3" style="fill:white;fill-opacity:0.3;"/>
<path d="M43.5076 1096.74L24.2529 1167.77L33.128 1170.18L52.3828 1099.15L43.5076 1096.74Z" fill="white" fill-opacity="0.3" style="fill:white;fill-opacity:0.3;"/>
<path d="M43.5018 1209.96L24.2471 1280.99L33.1223 1283.4L52.377 1212.37L43.5018 1209.96Z" fill="white" fill-opacity="0.3" style="fill:white;fill-opacity:0.3;"/>
<path d="M46.6897 1330.56L27.4349 1401.59L36.3101 1404L55.5649 1332.97L46.6897 1330.56Z" fill="white" fill-opacity="0.3" style="fill:white;fill-opacity:0.3;"/>
<path d="M155.092 1326.1L153.346 1399.67L162.539 1399.89L164.285 1326.31L155.092 1326.1Z" fill="white" fill-opacity="0.3" style="fill:white;fill-opacity:0.3;"/>
<path d="M283.241 1326.17L274.047 1326.33L275.344 1399.91L284.538 1399.75L283.241 1326.17Z" fill="white" fill-opacity="0.3" style="fill:white;fill-opacity:0.3;"/>
<path d="M389.274 1326.08L380.233 1327.76L393.68 1400.12L402.721 1398.44L389.274 1326.08Z" fill="white" fill-opacity="0.3" style="fill:white;fill-opacity:0.3;"/>
<path d="M504.738 1327.2L496.173 1330.55L522.949 1399.1L531.514 1395.76L504.738 1327.2Z" fill="white" fill-opacity="0.3" style="fill:white;fill-opacity:0.3;"/>
<path d="M615.47 1329.43L607.716 1334.37L647.273 1396.43L655.027 1391.49L615.47 1329.43Z" fill="white" fill-opacity="0.3" style="fill:white;fill-opacity:0.3;"/>
<path d="M728.008 1331.61L720.862 1337.4L767.168 1394.59L774.314 1388.8L728.008 1331.61Z" fill="white" fill-opacity="0.3" style="fill:white;fill-opacity:0.3;"/>
<path d="M845.277 1333.03L839.283 1340L895.084 1387.97L901.078 1381L845.277 1333.03Z" fill="white" fill-opacity="0.3" style="fill:white;fill-opacity:0.3;"/>
<path d="M958.334 1335.48L952.34 1342.46L1008.14 1390.43L1014.13 1383.46L958.334 1335.48Z" fill="white" fill-opacity="0.3" style="fill:white;fill-opacity:0.3;"/>
<path d="M1071.66 1337.02L1066.76 1344.8L1129.05 1383.99L1133.94 1376.2L1071.66 1337.02Z" fill="white" fill-opacity="0.3" style="fill:white;fill-opacity:0.3;"/>
<path d="M1188.95 1339.4L1184.06 1347.19L1246.34 1386.37L1251.24 1378.59L1188.95 1339.4Z" fill="white" fill-opacity="0.3" style="fill:white;fill-opacity:0.3;"/>
<path d="M1307.56 1341.6L1303.19 1349.7L1367.95 1384.64L1372.31 1376.55L1307.56 1341.6Z" fill="white" fill-opacity="0.3" style="fill:white;fill-opacity:0.3;"/>
<path d="M1426.87 1344.67L1423.31 1353.15L1491.15 1381.65L1494.71 1373.17L1426.87 1344.67Z" fill="white" fill-opacity="0.3" style="fill:white;fill-opacity:0.3;"/>
<path d="M1540.8 1344.12L1537.91 1352.85L1607.79 1375.93L1610.67 1367.19L1540.8 1344.12Z" fill="white" fill-opacity="0.3" style="fill:white;fill-opacity:0.3;"/>
<path d="M150.635 1209.75L142.535 1282.9L151.675 1283.92L159.775 1210.77L150.635 1209.75Z" fill="white" fill-opacity="0.3" style="fill:white;fill-opacity:0.3;"/>
<path d="M272.065 1213.16L271.397 1286.76L280.593 1286.84L281.26 1213.25L272.065 1213.16Z" fill="white" fill-opacity="0.3" style="fill:white;fill-opacity:0.3;"/>
<path d="M383.626 1210.52L374.957 1213.59L399.506 1282.97L408.175 1279.9L383.626 1210.52Z" fill="white" fill-opacity="0.3" style="fill:white;fill-opacity:0.3;"/>
<path d="M498.272 1211.31L489.871 1215.05L519.787 1282.29L528.189 1278.55L498.272 1211.31Z" fill="white" fill-opacity="0.3" style="fill:white;fill-opacity:0.3;"/>
<path d="M615.584 1216.41L607.805 1221.31L647.036 1283.57L654.815 1278.67L615.584 1216.41Z" fill="white" fill-opacity="0.3" style="fill:white;fill-opacity:0.3;"/>
<path d="M725.758 1215.56L718.672 1221.43L765.574 1278.13L772.659 1272.27L725.758 1215.56Z" fill="white" fill-opacity="0.3" style="fill:white;fill-opacity:0.3;"/>
<path d="M837.955 1223.73L832.326 1231L890.513 1276.05L896.142 1268.77L837.955 1223.73Z" fill="white" fill-opacity="0.3" style="fill:white;fill-opacity:0.3;"/>
<path d="M950.038 1222.3L945.481 1230.29L1009.39 1266.76L1013.95 1258.78L950.038 1222.3Z" fill="white" fill-opacity="0.3" style="fill:white;fill-opacity:0.3;"/>
<path d="M1067.1 1226.75L1063.37 1235.16L1130.62 1265.02L1134.35 1256.61L1067.1 1226.75Z" fill="white" fill-opacity="0.3" style="fill:white;fill-opacity:0.3;"/>
<path d="M1184.29 1230.11L1180.95 1238.68L1249.49 1265.44L1252.84 1256.87L1184.29 1230.11Z" fill="white" fill-opacity="0.3" style="fill:white;fill-opacity:0.3;"/>
<path d="M1307.36 1232.45L1305.19 1241.39L1376.69 1258.79L1378.86 1249.85L1307.36 1232.45Z" fill="white" fill-opacity="0.3" style="fill:white;fill-opacity:0.3;"/>
<path d="M1423 1234.55L1420.83 1243.48L1492.32 1260.88L1494.5 1251.94L1423 1234.55Z" fill="white" fill-opacity="0.3" style="fill:white;fill-opacity:0.3;"/>
<path d="M1539.53 1236.49L1537.36 1245.43L1608.85 1262.83L1611.03 1253.89L1539.53 1236.49Z" fill="white" fill-opacity="0.3" style="fill:white;fill-opacity:0.3;"/>
<path d="M152.708 1095.28L146.576 1168.62L155.74 1169.39L161.871 1096.05L152.708 1095.28Z" fill="white" fill-opacity="0.3" style="fill:white;fill-opacity:0.3;"/>
<path d="M271.923 1095.3L262.746 1095.89L267.418 1169.34L276.595 1168.75L271.923 1095.3Z" fill="white" fill-opacity="0.3" style="fill:white;fill-opacity:0.3;"/>
<path d="M392.141 1095.86L383.338 1098.52L404.605 1168.97L413.408 1166.32L392.141 1095.86Z" fill="white" fill-opacity="0.3" style="fill:white;fill-opacity:0.3;"/>
<path d="M508.657 1092.31L499.854 1094.97L521.121 1165.42L529.924 1162.77L508.657 1092.31Z" fill="white" fill-opacity="0.3" style="fill:white;fill-opacity:0.3;"/>
<path d="M613.259 1097.71L606.26 1103.67L653.988 1159.69L660.987 1153.72L613.259 1097.71Z" fill="white" fill-opacity="0.3" style="fill:white;fill-opacity:0.3;"/>
<path d="M721.862 1100.45L715.608 1107.19L769.553 1157.25L775.806 1150.5L721.862 1100.45Z" fill="white" fill-opacity="0.3" style="fill:white;fill-opacity:0.3;"/>
<path d="M836.267 1107.87L832.101 1116.07L897.696 1149.42L901.863 1141.22L836.267 1107.87Z" fill="white" fill-opacity="0.3" style="fill:white;fill-opacity:0.3;"/>
<path d="M952.176 1117.13L949.097 1125.8L1018.43 1150.44L1021.51 1141.77L952.176 1117.13Z" fill="white" fill-opacity="0.3" style="fill:white;fill-opacity:0.3;"/>
<path d="M1065.7 1118.47L1063.67 1127.44L1135.44 1143.65L1137.47 1134.68L1065.7 1118.47Z" fill="white" fill-opacity="0.3" style="fill:white;fill-opacity:0.3;"/>
<path d="M1185.68 1122.95L1184.82 1132.11L1258.08 1138.96L1258.94 1129.8L1185.68 1122.95Z" fill="white" fill-opacity="0.3" style="fill:white;fill-opacity:0.3;"/>
<path d="M1301.36 1126.42L1300.51 1135.58L1373.77 1142.43L1374.62 1133.27L1301.36 1126.42Z" fill="white" fill-opacity="0.3" style="fill:white;fill-opacity:0.3;"/>
<path d="M1415.01 1129.5L1414.91 1138.69L1488.49 1139.46L1488.59 1130.27L1415.01 1129.5Z" fill="white" fill-opacity="0.3" style="fill:white;fill-opacity:0.3;"/>
<path d="M1536.59 1129.5L1536.5 1138.7L1610.07 1139.47L1610.17 1130.27L1536.59 1129.5Z" fill="white" fill-opacity="0.3" style="fill:white;fill-opacity:0.3;"/>
<path d="M831.611 999.372L827.75 1007.72L894.528 1038.62L898.39 1030.28L831.611 999.372Z" fill="white" fill-opacity="0.3" style="fill:white;fill-opacity:0.3;"/>
<path d="M944.958 1003.62L942.254 1012.42L1012.58 1034.06L1015.29 1025.27L944.958 1003.62Z" fill="white" fill-opacity="0.3" style="fill:white;fill-opacity:0.3;"/>
<path d="M1251.82 1011.71L1178.41 1016.65L1179.03 1025.83L1252.44 1020.89L1251.82 1011.71Z" fill="white" fill-opacity="0.3" style="fill:white;fill-opacity:0.3;"/>
<path d="M1375.92 1007.42L1303.67 1021.33L1305.41 1030.36L1377.66 1016.45L1375.92 1007.42Z" fill="white" fill-opacity="0.3" style="fill:white;fill-opacity:0.3;"/>
<path d="M1487.26 1007.42L1415.01 1021.34L1416.75 1030.37L1489 1016.45L1487.26 1007.42Z" fill="white" fill-opacity="0.3" style="fill:white;fill-opacity:0.3;"/>
<path d="M1612.26 1007.42L1540.01 1021.33L1541.75 1030.36L1614 1016.45L1612.26 1007.42Z" fill="white" fill-opacity="0.3" style="fill:white;fill-opacity:0.3;"/>
<path d="M293.428 412.739L251.656 473.327L259.226 478.548L300.998 417.961L293.428 412.739Z" fill="white" fill-opacity="0.3" style="fill:white;fill-opacity:0.3;"/>
<path d="M845.522 187.078L840.861 195.007L904.293 232.305L908.953 224.376L845.522 187.078Z" fill="white" fill-opacity="0.3" style="fill:white;fill-opacity:0.3;"/>
<path d="M60.3093 410.692L9.43323 463.628L16.0625 470.002L66.9385 417.066L60.3093 410.692Z" fill="white" fill-opacity="0.3" style="fill:white;fill-opacity:0.3;"/>
<path d="M64.5417 299.802L6.26921 344.462L11.862 351.763L70.1346 307.103L64.5417 299.802Z" fill="white" fill-opacity="0.3" style="fill:white;fill-opacity:0.3;"/>
<path d="M181.73 191.238L115.732 223.393L119.758 231.662L185.757 199.507L181.73 191.238Z" fill="white" fill-opacity="0.3" style="fill:white;fill-opacity:0.3;"/>
<path d="M309.739 83.8809L240 106.815L242.872 115.553L312.611 92.6185L309.739 83.8809Z" fill="white" fill-opacity="0.3" style="fill:white;fill-opacity:0.3;"/>
<path d="M427.893 83.8842L358.154 106.819L361.026 115.556L430.765 92.6218L427.893 83.8842Z" fill="white" fill-opacity="0.3" style="fill:white;fill-opacity:0.3;"/>
<path d="M184.201 83.8909L114.462 106.825L117.334 115.563L187.073 92.6285L184.201 83.8909Z" fill="white" fill-opacity="0.3" style="fill:white;fill-opacity:0.3;"/>
<path d="M544.951 82.6995L472.917 96.8613L474.691 105.886L546.724 91.7246L544.951 82.6995Z" fill="white" fill-opacity="0.3" style="fill:white;fill-opacity:0.3;"/>
<path d="M660.349 83.6244L587.957 95.8195L589.484 104.89L661.876 92.6944L660.349 83.6244Z" fill="white" fill-opacity="0.3" style="fill:white;fill-opacity:0.3;"/>
<path d="M707.351 78.0909L705.121 87.0143L776.343 104.816L778.572 95.8922L707.351 78.0909Z" fill="white" fill-opacity="0.3" style="fill:white;fill-opacity:0.3;"/>
<path d="M833.169 67.0225L827.984 74.619L888.615 116.019L893.799 108.423L833.169 67.0225Z" fill="white" fill-opacity="0.3" style="fill:white;fill-opacity:0.3;"/>
<path d="M964.669 58.9805L957.199 64.3451L1000.02 123.99L1007.49 118.626L964.669 58.9805Z" fill="white" fill-opacity="0.3" style="fill:white;fill-opacity:0.3;"/>
<path d="M1087.87 65.6371L1079.68 69.83L1113.15 135.185L1121.33 130.993L1087.87 65.6371Z" fill="white" fill-opacity="0.3" style="fill:white;fill-opacity:0.3;"/>
<path d="M1217.03 60.6117L1208.07 62.6698L1224.49 134.237L1233.45 132.179L1217.03 60.6117Z" fill="white" fill-opacity="0.3" style="fill:white;fill-opacity:0.3;"/>
<path d="M1330.58 56.4714L1327.98 129.854L1337.17 130.18L1339.77 56.7972L1330.58 56.4714Z" fill="white" fill-opacity="0.3" style="fill:white;fill-opacity:0.3;"/>
<path d="M1455.23 56.3694L1448.95 129.529L1458.11 130.316L1464.39 57.1567L1455.23 56.3694Z" fill="white" fill-opacity="0.3" style="fill:white;fill-opacity:0.3;"/>
<path d="M1578.57 57.3411L1553.55 126.372L1562.19 129.507L1587.21 60.4763L1578.57 57.3411Z" fill="white" fill-opacity="0.3" style="fill:white;fill-opacity:0.3;"/>
<path d="M65.9988 189.449L0 221.604L4.02676 229.873L70.0255 197.718L65.9988 189.449Z" fill="white" fill-opacity="0.3" style="fill:white;fill-opacity:0.3;"/>
<path d="M73.9218 84.82L3.56614 105.785L6.19168 114.6L76.5474 93.6348L73.9218 84.82Z" fill="white" fill-opacity="0.3" style="fill:white;fill-opacity:0.3;"/>
<path d="M73.507 -27.0007L1.21959 -14.1995L2.82271 -5.14258L75.1101 -17.9438L73.507 -27.0007Z" fill="white" fill-opacity="0.3" style="fill:white;fill-opacity:0.3;"/>
<path d="M74.7582 -135.373L1.36549 -133.707L1.57412 -124.512L74.9668 -126.178L74.7582 -135.373Z" fill="white" fill-opacity="0.3" style="fill:white;fill-opacity:0.3;"/>
<path d="M189.284 -27.0177L116.997 -14.2164L118.6 -5.15955L190.888 -17.9608L189.284 -27.0177Z" fill="white" fill-opacity="0.3" style="fill:white;fill-opacity:0.3;"/>
<path d="M120.149 -141.247L119.871 -132.053L193.249 -129.836L193.527 -139.03L120.149 -141.247Z" fill="white" fill-opacity="0.3" style="fill:white;fill-opacity:0.3;"/>
<path d="M235.224 -142.619L234.599 -133.442L307.84 -128.448L308.466 -137.624L235.224 -142.619Z" fill="white" fill-opacity="0.3" style="fill:white;fill-opacity:0.3;"/>
<path d="M356.548 -140.871L355.923 -131.694L429.164 -126.7L429.79 -135.876L356.548 -140.871Z" fill="white" fill-opacity="0.3" style="fill:white;fill-opacity:0.3;"/>
<path d="M474.687 -145.302L472.931 -136.273L544.992 -122.25L546.748 -131.278L474.687 -145.302Z" fill="white" fill-opacity="0.3" style="fill:white;fill-opacity:0.3;"/>
<path d="M595.544 -152.914L592.473 -144.244L661.67 -119.721L664.741 -128.391L595.544 -152.914Z" fill="white" fill-opacity="0.3" style="fill:white;fill-opacity:0.3;"/>
<path d="M715.827 -157.547L711.53 -149.416L776.432 -115.102L780.729 -123.233L715.827 -157.547Z" fill="white" fill-opacity="0.3" style="fill:white;fill-opacity:0.3;"/>
<path d="M842.169 -165.162L835.78 -158.547L888.579 -107.53L894.968 -114.145L842.169 -165.162Z" fill="white" fill-opacity="0.3" style="fill:white;fill-opacity:0.3;"/>
<path d="M964.156 -168.49L956.773 -163.008L1000.53 -104.05L1007.92 -109.533L964.156 -168.49Z" fill="white" fill-opacity="0.3" style="fill:white;fill-opacity:0.3;"/>
<path d="M1086.53 -170.492L1078.51 -165.982L1114.51 -101.985L1122.52 -106.494L1086.53 -170.492Z" fill="white" fill-opacity="0.3" style="fill:white;fill-opacity:0.3;"/>
<path d="M1216.53 -173.243L1207.52 -171.425L1222.03 -99.4452L1231.04 -101.263L1216.53 -173.243Z" fill="white" fill-opacity="0.3" style="fill:white;fill-opacity:0.3;"/>
<path d="M1337.69 -173.128L1328.51 -172.593L1332.78 -99.2886L1341.96 -99.8229L1337.69 -173.128Z" fill="white" fill-opacity="0.3" style="fill:white;fill-opacity:0.3;"/>
<path d="M1458.95 -173.133L1455.89 -99.7684L1465.08 -99.3849L1468.14 -172.75L1458.95 -173.133Z" fill="white" fill-opacity="0.3" style="fill:white;fill-opacity:0.3;"/>
<path d="M1570.57 -173.185L1558.16 -100.812L1567.23 -99.2578L1579.63 -171.63L1570.57 -173.185Z" fill="white" fill-opacity="0.3" style="fill:white;fill-opacity:0.3;"/>
<path d="M1573.48 -289.201L1561.07 -216.829L1570.14 -215.274L1582.54 -287.647L1573.48 -289.201Z" fill="white" fill-opacity="0.3" style="fill:white;fill-opacity:0.3;"/>
<path d="M1449.04 -289.139L1446.16 -215.767L1455.35 -215.406L1458.23 -288.778L1449.04 -289.139Z" fill="white" fill-opacity="0.3" style="fill:white;fill-opacity:0.3;"/>
<path d="M1338.61 -289.673L1329.41 -289.358L1331.93 -215.972L1341.12 -216.287L1338.61 -289.673Z" fill="white" fill-opacity="0.3" style="fill:white;fill-opacity:0.3;"/>
<path d="M1224.81 -289.317L1215.75 -287.693L1228.72 -215.418L1237.77 -217.042L1224.81 -289.317Z" fill="white" fill-opacity="0.3" style="fill:white;fill-opacity:0.3;"/>
<path d="M1094.99 -287.237L1086.73 -283.189L1119.04 -217.254L1127.29 -221.301L1094.99 -287.237Z" fill="white" fill-opacity="0.3" style="fill:white;fill-opacity:0.3;"/>
<path d="M966.675 -285.784L958.893 -280.884L998.001 -218.742L1005.78 -223.642L966.675 -285.784Z" fill="white" fill-opacity="0.3" style="fill:white;fill-opacity:0.3;"/>
<path d="M849.247 -284.508L842.429 -278.337L891.684 -223.889L898.503 -230.06L849.247 -284.508Z" fill="white" fill-opacity="0.3" style="fill:white;fill-opacity:0.3;"/>
<path d="M721.239 -279.129L715.94 -271.612L775.935 -229.296L781.234 -236.812L721.239 -279.129Z" fill="white" fill-opacity="0.3" style="fill:white;fill-opacity:0.3;"/>
<path d="M601.264 -279.138L595.964 -271.621L655.96 -229.305L661.259 -236.822L601.264 -279.138Z" fill="white" fill-opacity="0.3" style="fill:white;fill-opacity:0.3;"/>
<path d="M476.1 -274.586L472.021 -266.342L537.817 -233.773L541.896 -242.017L476.1 -274.586Z" fill="white" fill-opacity="0.3" style="fill:white;fill-opacity:0.3;"/>
<path d="M366.983 -268.225L364.113 -259.487L433.856 -236.565L436.726 -245.303L366.983 -268.225Z" fill="white" fill-opacity="0.3" style="fill:white;fill-opacity:0.3;"/>
<path d="M237.145 -262.898L234.86 -253.989L305.969 -235.74L308.254 -244.649L237.145 -262.898Z" fill="white" fill-opacity="0.3" style="fill:white;fill-opacity:0.3;"/>
<path d="M122.309 -262.914L120.023 -254.005L191.132 -235.756L193.417 -244.665L122.309 -262.914Z" fill="white" fill-opacity="0.3" style="fill:white;fill-opacity:0.3;"/>
<path d="M2.6134 -262.899L0.328099 -253.99L71.4366 -235.741L73.7219 -244.65L2.6134 -262.899Z" fill="white" fill-opacity="0.3" style="fill:white;fill-opacity:0.3;"/>
<path d="M4.48525 -385.933L1.14493 -377.364L69.5419 -350.691L72.8822 -359.26L4.48525 -385.933Z" fill="white" fill-opacity="0.3" style="fill:white;fill-opacity:0.3;"/>
<path d="M124.166 -385.941L120.826 -377.371L189.223 -350.698L192.563 -359.268L124.166 -385.941Z" fill="white" fill-opacity="0.3" style="fill:white;fill-opacity:0.3;"/>
<path d="M247.353 -382.907L243.687 -374.472L311.01 -345.192L314.676 -353.627L247.353 -382.907Z" fill="white" fill-opacity="0.3" style="fill:white;fill-opacity:0.3;"/>
<path d="M361.046 -385.854L357.379 -377.419L424.702 -348.139L428.368 -356.574L361.046 -385.854Z" fill="white" fill-opacity="0.3" style="fill:white;fill-opacity:0.3;"/>
<path d="M481.251 -391.623L476.044 -384.042L536.552 -342.462L541.759 -350.043L481.251 -391.623Z" fill="white" fill-opacity="0.3" style="fill:white;fill-opacity:0.3;"/>
<path d="M605.293 -389.115L600.085 -381.534L660.593 -339.954L665.8 -347.535L605.293 -389.115Z" fill="white" fill-opacity="0.3" style="fill:white;fill-opacity:0.3;"/>
<path d="M722.091 -395.102L715.907 -388.295L770.239 -338.915L776.423 -345.722L722.091 -395.102Z" fill="white" fill-opacity="0.3" style="fill:white;fill-opacity:0.3;"/>
<path d="M843.244 -398.392L836.104 -392.595L882.373 -335.587L889.513 -341.384L843.244 -398.392Z" fill="white" fill-opacity="0.3" style="fill:white;fill-opacity:0.3;"/>
<path d="M966.63 -397.962L958.855 -393.051L998.05 -330.964L1005.83 -335.875L966.63 -397.962Z" fill="white" fill-opacity="0.3" style="fill:white;fill-opacity:0.3;"/>
<path d="M1088.88 -399.56L1080.58 -395.6L1112.18 -329.325L1120.48 -333.285L1088.88 -399.56Z" fill="white" fill-opacity="0.3" style="fill:white;fill-opacity:0.3;"/>
<path d="M1211.97 -403.178L1203.12 -400.701L1222.88 -329.984L1231.74 -332.461L1211.97 -403.178Z" fill="white" fill-opacity="0.3" style="fill:white;fill-opacity:0.3;"/>
<path d="M1335.25 -401.543L1326.13 -400.4L1335.25 -327.541L1344.38 -328.684L1335.25 -401.543Z" fill="white" fill-opacity="0.3" style="fill:white;fill-opacity:0.3;"/>
<path d="M1459.62 -403.42L1450.42 -403.354L1450.95 -329.927L1460.14 -329.993L1459.62 -403.42Z" fill="white" fill-opacity="0.3" style="fill:white;fill-opacity:0.3;"/>
<path d="M1575.49 -400.92L1559.15 -329.334L1568.12 -327.286L1584.46 -398.873L1575.49 -400.92Z" fill="white" fill-opacity="0.3" style="fill:white;fill-opacity:0.3;"/>
<path d="M1578.81 -517.756L1562.47 -446.169L1571.43 -444.122L1587.77 -515.709L1578.81 -517.756Z" fill="white" fill-opacity="0.3" style="fill:white;fill-opacity:0.3;"/>
<path d="M1451.58 -517.903L1446.52 -444.649L1455.69 -444.015L1460.75 -517.27L1451.58 -517.903Z" fill="white" fill-opacity="0.3" style="fill:white;fill-opacity:0.3;"/>
<path d="M1340.68 -517.619L1331.49 -517.516L1332.31 -444.092L1341.5 -444.195L1340.68 -517.619Z" fill="white" fill-opacity="0.3" style="fill:white;fill-opacity:0.3;"/>
<path d="M1220.14 -518.89L1211.02 -517.715L1220.4 -444.888L1229.52 -446.063L1220.14 -518.89Z" fill="white" fill-opacity="0.3" style="fill:white;fill-opacity:0.3;"/>
<path d="M1101.24 -516.595L1092.4 -514.041L1112.79 -443.5L1121.62 -446.053L1101.24 -516.595Z" fill="white" fill-opacity="0.3" style="fill:white;fill-opacity:0.3;"/>
<path d="M974.776 -516.22L966.75 -511.732L1002.58 -447.64L1010.6 -452.129L974.776 -516.22Z" fill="white" fill-opacity="0.3" style="fill:white;fill-opacity:0.3;"/>
<path d="M856.553 -519L848.527 -514.511L884.353 -450.42L892.379 -454.909L856.553 -519Z" fill="white" fill-opacity="0.3" style="fill:white;fill-opacity:0.3;"/>
<path d="M728.952 -513.258L721.827 -507.443L768.235 -450.548L775.36 -456.362L728.952 -513.258Z" fill="white" fill-opacity="0.3" style="fill:white;fill-opacity:0.3;"/>
<path d="M606.203 -510.341L599.648 -503.891L651.13 -451.545L657.686 -457.995L606.203 -510.341Z" fill="white" fill-opacity="0.3" style="fill:white;fill-opacity:0.3;"/>
<path d="M485.764 -508.225L479.579 -501.419L533.902 -452.029L540.087 -458.835L485.764 -508.225Z" fill="white" fill-opacity="0.3" style="fill:white;fill-opacity:0.3;"/>
<path d="M365.593 -509.626L360.277 -502.12L420.184 -459.679L425.499 -467.184L365.593 -509.626Z" fill="white" fill-opacity="0.3" style="fill:white;fill-opacity:0.3;"/>
<path d="M248.171 -505.923L242.856 -498.418L302.763 -455.976L308.078 -463.482L248.171 -505.923Z" fill="white" fill-opacity="0.3" style="fill:white;fill-opacity:0.3;"/>
<path d="M132.343 -507.586L127.92 -499.522L192.282 -464.204L196.705 -472.267L132.343 -507.586Z" fill="white" fill-opacity="0.3" style="fill:white;fill-opacity:0.3;"/>
<path d="M9.06685 -506.368L4.64387 -498.304L69.0058 -462.985L73.4288 -471.049L9.06685 -506.368Z" fill="white" fill-opacity="0.3" style="fill:white;fill-opacity:0.3;"/>
<path d="M311.689 -27.0061L239.401 -14.2049L241.005 -5.14795L313.292 -17.9492L311.689 -27.0061Z" fill="white" fill-opacity="0.3" style="fill:white;fill-opacity:0.3;"/>
<path d="M427.998 -27.4929L354.817 -21.6807L355.545 -12.5118L428.726 -18.324L427.998 -27.4929Z" fill="white" fill-opacity="0.3" style="fill:white;fill-opacity:0.3;"/>
<path d="M543.58 -24.9734L470.173 -24.1405L470.277 -14.9433L543.684 -15.7763L543.58 -24.9734Z" fill="white" fill-opacity="0.3" style="fill:white;fill-opacity:0.3;"/>
<path d="M590.115 -31.9991L588.113 -23.0219L659.765 -7.04138L661.767 -16.0187L590.115 -31.9991Z" fill="white" fill-opacity="0.3" style="fill:white;fill-opacity:0.3;"/>
<path d="M712.459 -38.6782L708.955 -30.1745L776.828 -2.19299L780.332 -10.6967L712.459 -38.6782Z" fill="white" fill-opacity="0.3" style="fill:white;fill-opacity:0.3;"/>
<path d="M835.576 -47.5098L830.283 -39.9883L890.315 2.27551L895.608 -5.24591L835.576 -47.5098Z" fill="white" fill-opacity="0.3" style="fill:white;fill-opacity:0.3;"/>
<path d="M964.213 -51.8554L957.68 -45.3823L1009.34 6.78375L1015.88 0.310669L964.213 -51.8554Z" fill="white" fill-opacity="0.3" style="fill:white;fill-opacity:0.3;"/>
<path d="M1087.4 -56.1363L1079.61 -51.2514L1118.6 10.9653L1126.39 6.08038L1087.4 -56.1363Z" fill="white" fill-opacity="0.3" style="fill:white;fill-opacity:0.3;"/>
<path d="M1211.91 -61.3019L1203.04 -58.8873L1222.31 11.9659L1231.18 9.55127L1211.91 -61.3019Z" fill="white" fill-opacity="0.3" style="fill:white;fill-opacity:0.3;"/>
<path d="M1338.84 -57.0496L1329.65 -56.804L1331.61 16.5985L1340.8 16.353L1338.84 -57.0496Z" fill="white" fill-opacity="0.3" style="fill:white;fill-opacity:0.3;"/>
<path d="M1452.04 -57.3607L1442.94 15.5016L1452.06 16.6417L1461.16 -56.2207L1452.04 -57.3607Z" fill="white" fill-opacity="0.3" style="fill:white;fill-opacity:0.3;"/>
<path d="M1580.03 -57.2997L1567.11 14.9821L1576.16 16.6014L1589.08 -55.6804L1580.03 -57.2997Z" fill="white" fill-opacity="0.3" style="fill:white;fill-opacity:0.3;"/>
<path d="M59.9311 524.493L12.7942 586.049L20.0945 591.642L67.2314 530.086L59.9311 524.493Z" fill="white" fill-opacity="0.3" style="fill:white;fill-opacity:0.3;"/>
<path d="M58.0241 631.782L14.4744 695.927L22.0817 701.094L65.6314 636.95L58.0241 631.782Z" fill="white" fill-opacity="0.3" style="fill:white;fill-opacity:0.3;"/>
<path d="M44.4883 751.031L15.9516 823.123L24.5015 826.509L53.0381 754.417L44.4883 751.031Z" fill="white" fill-opacity="0.3" style="fill:white;fill-opacity:0.3;"/>
<path d="M44.4872 861.058L15.9506 933.15L24.5004 936.536L53.0371 864.444L44.4872 861.058Z" fill="white" fill-opacity="0.3" style="fill:white;fill-opacity:0.3;"/>
<path d="M153.496 863.298L143.685 940.227L152.806 941.391L162.618 864.462L153.496 863.298Z" fill="white" fill-opacity="0.3" style="fill:white;fill-opacity:0.3;"/>
<path d="M270.717 863.505L267.741 940.985L276.93 941.338L279.906 863.858L270.717 863.505Z" fill="white" fill-opacity="0.3" style="fill:white;fill-opacity:0.3;"/>
<path d="M384.689 864.229L375.955 867.106L400.206 940.751L408.94 937.874L384.689 864.229Z" fill="white" fill-opacity="0.3" style="fill:white;fill-opacity:0.3;"/>
<path d="M496.38 865.917L488.211 870.139L523.801 939.022L531.97 934.799L496.38 865.917Z" fill="white" fill-opacity="0.3" style="fill:white;fill-opacity:0.3;"/>
<path d="M713.153 874.629L708.385 882.494L774.671 922.695L779.439 914.83L713.153 874.629Z" fill="white" fill-opacity="0.3" style="fill:white;fill-opacity:0.3;"/>
<path d="M825.319 888.745L824.019 897.851L900.759 908.816L902.059 899.711L825.319 888.745Z" fill="white" fill-opacity="0.3" style="fill:white;fill-opacity:0.3;"/>
<path d="M950.625 896.529L949.876 905.697L1027.14 912.009L1027.89 902.842L950.625 896.529Z" fill="white" fill-opacity="0.3" style="fill:white;fill-opacity:0.3;"/>
<path d="M1134.28 885.117L1058.97 903.467L1061.14 912.404L1136.46 894.053L1134.28 885.117Z" fill="white" fill-opacity="0.3" style="fill:white;fill-opacity:0.3;"/>
<path d="M1257.17 887.433L1181.85 905.784L1184.03 914.72L1259.34 896.37L1257.17 887.433Z" fill="white" fill-opacity="0.3" style="fill:white;fill-opacity:0.3;"/>
<path d="M1365.57 760.79L1301.93 805.063L1307.18 812.614L1370.82 768.341L1365.57 760.79Z" fill="white" fill-opacity="0.3" style="fill:white;fill-opacity:0.3;"/>
<path d="M1367.84 881.464L1296.61 912.059L1300.24 920.511L1371.47 889.916L1367.84 881.464Z" fill="white" fill-opacity="0.3" style="fill:white;fill-opacity:0.3;"/>
<path d="M1139.12 1010.47L1061.65 1013.13L1061.96 1022.32L1139.44 1019.67L1139.12 1010.47Z" fill="white" fill-opacity="0.3" style="fill:white;fill-opacity:0.3;"/>
<path d="M1488.07 876.471L1422.64 918.051L1427.57 925.815L1493 884.234L1488.07 876.471Z" fill="white" fill-opacity="0.3" style="fill:white;fill-opacity:0.3;"/>
<path d="M1488.08 762.118L1422.65 803.699L1427.58 811.462L1493.01 769.881L1488.08 762.118Z" fill="white" fill-opacity="0.3" style="fill:white;fill-opacity:0.3;"/>
<path d="M1602.19 765.112L1533.23 800.518L1537.42 808.701L1606.39 773.295L1602.19 765.112Z" fill="white" fill-opacity="0.3" style="fill:white;fill-opacity:0.3;"/>
<path d="M1602.17 878.198L1533.2 913.604L1537.4 921.787L1606.37 886.381L1602.17 878.198Z" fill="white" fill-opacity="0.3" style="fill:white;fill-opacity:0.3;"/>
<path d="M1604.92 646.31L1543.48 693.587L1549.08 700.877L1610.52 653.6L1604.92 646.31Z" fill="white" fill-opacity="0.3" style="fill:white;fill-opacity:0.3;"/>
<path d="M1478.03 644.203L1416.59 691.48L1422.2 698.77L1483.64 651.494L1478.03 644.203Z" fill="white" fill-opacity="0.3" style="fill:white;fill-opacity:0.3;"/>
<path d="M1470.99 516.75L1428.37 581.518L1436.05 586.575L1478.67 521.806L1470.99 516.75Z" fill="white" fill-opacity="0.3" style="fill:white;fill-opacity:0.3;"/>
<path d="M1594.44 520.497L1546.29 581.262L1553.5 586.975L1601.65 526.21L1594.44 520.497Z" fill="white" fill-opacity="0.3" style="fill:white;fill-opacity:0.3;"/>
<path d="M1479.46 407.211L1431.31 467.977L1438.52 473.69L1486.67 412.924L1479.46 407.211Z" fill="white" fill-opacity="0.3" style="fill:white;fill-opacity:0.3;"/>
<path d="M1594.45 407.207L1546.3 467.972L1553.5 473.686L1601.66 412.92L1594.45 407.207Z" fill="white" fill-opacity="0.3" style="fill:white;fill-opacity:0.3;"/>
<path d="M1461.94 291.525L1429.84 362.103L1438.21 365.912L1470.31 295.334L1461.94 291.525Z" fill="white" fill-opacity="0.3" style="fill:white;fill-opacity:0.3;"/>
<path d="M1586.93 288.807L1554.84 359.385L1563.21 363.194L1595.31 292.616L1586.93 288.807Z" fill="white" fill-opacity="0.3" style="fill:white;fill-opacity:0.3;"/>
<path d="M1460.24 174.77L1438.16 249.11L1446.97 251.73L1469.06 177.39L1460.24 174.77Z" fill="white" fill-opacity="0.3" style="fill:white;fill-opacity:0.3;"/>
<path d="M1583.66 172.883L1553.58 244.346L1562.05 247.914L1592.13 176.452L1583.66 172.883Z" fill="white" fill-opacity="0.3" style="fill:white;fill-opacity:0.3;"/>
<path d="M1360.12 636.417L1306.02 691.948L1312.61 698.367L1366.71 642.837L1360.12 636.417Z" fill="white" fill-opacity="0.3" style="fill:white;fill-opacity:0.3;"/>
<path d="M1353.58 516.775L1311.49 581.884L1319.21 586.879L1361.3 521.77L1353.58 516.775Z" fill="white" fill-opacity="0.3" style="fill:white;fill-opacity:0.3;"/>
<path d="M1350.82 407.257L1319.25 478.074L1327.65 481.82L1359.22 411.003L1350.82 407.257Z" fill="white" fill-opacity="0.3" style="fill:white;fill-opacity:0.3;"/>
<path d="M1342.05 289.757L1327.19 365.857L1336.22 367.62L1351.08 291.52L1342.05 289.757Z" fill="white" fill-opacity="0.3" style="fill:white;fill-opacity:0.3;"/>
<path d="M1338.55 171.563L1329.35 171.71L1330.6 249.237L1339.79 249.09L1338.55 171.563Z" fill="white" fill-opacity="0.3" style="fill:white;fill-opacity:0.3;"/>
</svg>
